<svg id="Layer_2" data-name="Layer 2" xmlns="http://www.w3.org/2000/svg" viewBox="0 0 1000 1000"><defs><style>.cls-1{font-size:193px;font-family:Flegrei-Regular, Flegrei;}.cls-2{letter-spacing:0.02em;}.cls-3{letter-spacing:-0.04em;}.cls-4{fill:#fff;}.cls-5{fill:red;}</style></defs><text class="cls-1" transform="translate(160 339)">UNI<tspan class="cls-2" x="344.31" y="0">k</tspan><tspan class="cls-3" x="476.9" y="0">A</tspan><tspan x="0" y="231.6">SOUND</tspan><tspan x="0" y="463.2">DESIGN</tspan></text><polygon class="cls-4" points="692.93 296 709.46 263.46 726 296 692.93 296"/><circle class="cls-4" cx="364" cy="503" r="22"/><path class="cls-4" d="M755,481v44.1h10c14.73,0,23.13-6.82,23.5-22.18-.46-13.83-8-22.09-26.08-21.92Z"/><path class="cls-4" d="M205,714v44.1h10c14.73,0,23.13-6.82,23.5-22.18-.46-13.83-8-22.09-26.08-21.92Z"/><polygon class="cls-5" points="336.54 276.29 336.54 340 401.13 340 336.54 276.29 336.54 276.29"/><polygon class="cls-5" points="789.53 738.29 789.53 802 854.13 802 789.53 738.29 789.53 738.29"/><polygon class="cls-5" points="615 506.29 615 570 679.6 570 615 506.29 615 506.29"/><path class="cls-5" d="M951,49V951H49V49H951m49-49H0V1000H1000V0Z"/></svg>